<mxfile host="app.diagrams.net" modified="2024-06-21T07:28:20.014Z" agent="Mozilla/5.0 (Windows NT 10.0; Win64; x64) AppleWebKit/537.36 (KHTML, like Gecko) Chrome/126.0.0.0 Safari/537.36" etag="cZg9JNj6RgMnKO1yIjnl" version="24.5.5" type="device">
  <diagram name="Seite-1" id="wrgtuain-yFUvVlAA94A">
    <mxGraphModel dx="1502" dy="522" grid="1" gridSize="10" guides="1" tooltips="1" connect="1" arrows="1" fold="1" page="1" pageScale="1" pageWidth="827" pageHeight="1169" math="0" shadow="0">
      <root>
        <mxCell id="0" />
        <mxCell id="1" parent="0" />
        <mxCell id="Eos6X2ovC3lkWwXZqZiY-4" value="Innovative Faktoren" style="swimlane;fontStyle=1;align=center;verticalAlign=middle;childLayout=stackLayout;horizontal=1;startSize=29;horizontalStack=0;resizeParent=1;resizeParentMax=0;resizeLast=0;collapsible=0;marginBottom=0;html=1;whiteSpace=wrap;" parent="1" vertex="1">
          <mxGeometry x="40" y="40" width="320" height="170" as="geometry" />
        </mxCell>
        <mxCell id="Eos6X2ovC3lkWwXZqZiY-5" value="- Verkauf an Kommunen als SaaS&lt;br&gt;&lt;br&gt;- Anreiz: Wählerzufriedenheit &amp;amp; Gemeinschaftsgefühl steigern, Plattform für regionale Produzenten bieten&lt;br&gt;&lt;br&gt;- Self-Hosting: Anpassung an die Region, Datenschutzkonformität" style="text;html=1;strokeColor=none;fillColor=none;align=left;verticalAlign=middle;spacingLeft=4;spacingRight=4;overflow=hidden;rotatable=0;points=[[0,0.5],[1,0.5]];portConstraint=eastwest;whiteSpace=wrap;" parent="Eos6X2ovC3lkWwXZqZiY-4" vertex="1">
          <mxGeometry y="29" width="320" height="141" as="geometry" />
        </mxCell>
        <mxCell id="Eos6X2ovC3lkWwXZqZiY-7" value="Use Cases / Features" style="swimlane;fontStyle=1;align=center;verticalAlign=middle;childLayout=stackLayout;horizontal=1;startSize=29;horizontalStack=0;resizeParent=1;resizeParentMax=0;resizeLast=0;collapsible=0;marginBottom=0;html=1;whiteSpace=wrap;" parent="1" vertex="1">
          <mxGeometry x="440" y="40" width="320" height="170" as="geometry" />
        </mxCell>
        <mxCell id="Eos6X2ovC3lkWwXZqZiY-8" value="- User Account System: Kontaktdaten hinterlegen, Angebote speichern&lt;br&gt;&lt;br&gt;- User können Waren/Dienstleistungen BIETEN, SUCHEN, TAUSCHEN für Geld/Waren/Dienstleistungen" style="text;html=1;strokeColor=none;fillColor=none;align=left;verticalAlign=middle;spacingLeft=4;spacingRight=4;overflow=hidden;rotatable=0;points=[[0,0.5],[1,0.5]];portConstraint=eastwest;whiteSpace=wrap;" parent="Eos6X2ovC3lkWwXZqZiY-7" vertex="1">
          <mxGeometry y="29" width="320" height="141" as="geometry" />
        </mxCell>
        <mxCell id="Eos6X2ovC3lkWwXZqZiY-9" value="" style="rounded=0;whiteSpace=wrap;html=1;" parent="1" vertex="1">
          <mxGeometry x="40" y="270" width="720" height="390" as="geometry" />
        </mxCell>
        <mxCell id="Eos6X2ovC3lkWwXZqZiY-11" value="" style="rounded=0;whiteSpace=wrap;html=1;" parent="1" vertex="1">
          <mxGeometry x="40" y="270" width="720" height="50" as="geometry" />
        </mxCell>
        <mxCell id="Eos6X2ovC3lkWwXZqZiY-10" value="Profil" style="ellipse;whiteSpace=wrap;html=1;aspect=fixed;" parent="1" vertex="1">
          <mxGeometry x="710" y="275" width="40" height="40" as="geometry" />
        </mxCell>
        <mxCell id="Eos6X2ovC3lkWwXZqZiY-13" value="" style="rounded=0;whiteSpace=wrap;html=1;" parent="1" vertex="1">
          <mxGeometry x="200" y="320" width="400" height="80" as="geometry" />
        </mxCell>
        <mxCell id="Eos6X2ovC3lkWwXZqZiY-14" value="" style="rounded=0;whiteSpace=wrap;html=1;" parent="1" vertex="1">
          <mxGeometry x="200" y="400" width="400" height="80" as="geometry" />
        </mxCell>
        <mxCell id="Eos6X2ovC3lkWwXZqZiY-15" value="" style="rounded=0;whiteSpace=wrap;html=1;" parent="1" vertex="1">
          <mxGeometry x="200" y="560" width="400" height="80" as="geometry" />
        </mxCell>
        <mxCell id="Eos6X2ovC3lkWwXZqZiY-16" value="" style="rounded=0;whiteSpace=wrap;html=1;" parent="1" vertex="1">
          <mxGeometry x="200" y="480" width="400" height="80" as="geometry" />
        </mxCell>
        <mxCell id="Eos6X2ovC3lkWwXZqZiY-17" value="" style="rounded=0;whiteSpace=wrap;html=1;" parent="1" vertex="1">
          <mxGeometry x="200" y="640" width="400" height="20" as="geometry" />
        </mxCell>
        <mxCell id="Eos6X2ovC3lkWwXZqZiY-18" value="SUCHE/BIETE/TAUSCHE" style="text;html=1;align=center;verticalAlign=middle;whiteSpace=wrap;rounded=0;" parent="1" vertex="1">
          <mxGeometry x="370" y="320" width="60" height="30" as="geometry" />
        </mxCell>
        <mxCell id="Eos6X2ovC3lkWwXZqZiY-19" value="BILD" style="rounded=0;whiteSpace=wrap;html=1;" parent="1" vertex="1">
          <mxGeometry x="200" y="320" width="120" height="80" as="geometry" />
        </mxCell>
        <mxCell id="Eos6X2ovC3lkWwXZqZiY-20" value="Titel" style="text;html=1;align=center;verticalAlign=middle;whiteSpace=wrap;rounded=0;" parent="1" vertex="1">
          <mxGeometry x="310" y="345" width="60" height="30" as="geometry" />
        </mxCell>
        <mxCell id="Eos6X2ovC3lkWwXZqZiY-21" value="Username" style="text;html=1;align=center;verticalAlign=middle;whiteSpace=wrap;rounded=0;" parent="1" vertex="1">
          <mxGeometry x="540" y="370" width="60" height="30" as="geometry" />
        </mxCell>
        <mxCell id="Eos6X2ovC3lkWwXZqZiY-22" value="SEARCHBAR nach Titel" style="rounded=1;whiteSpace=wrap;html=1;" parent="1" vertex="1">
          <mxGeometry x="300" y="277.5" width="200" height="35" as="geometry" />
        </mxCell>
        <mxCell id="Eos6X2ovC3lkWwXZqZiY-23" value="&lt;font style=&quot;font-size: 18px;&quot;&gt;VonHier - Kommune&lt;/font&gt;" style="text;html=1;align=center;verticalAlign=middle;whiteSpace=wrap;rounded=0;" parent="1" vertex="1">
          <mxGeometry x="50" y="280" width="180" height="30" as="geometry" />
        </mxCell>
        <mxCell id="Eos6X2ovC3lkWwXZqZiY-25" value="" style="rounded=0;whiteSpace=wrap;html=1;" parent="1" vertex="1">
          <mxGeometry x="40" y="710" width="720" height="390" as="geometry" />
        </mxCell>
        <mxCell id="Eos6X2ovC3lkWwXZqZiY-26" value="HOMEPAGE" style="text;html=1;align=center;verticalAlign=middle;whiteSpace=wrap;rounded=0;" parent="1" vertex="1">
          <mxGeometry x="40" y="240" width="80" height="30" as="geometry" />
        </mxCell>
        <mxCell id="Eos6X2ovC3lkWwXZqZiY-27" value="DETAILVIEW" style="text;html=1;align=center;verticalAlign=middle;whiteSpace=wrap;rounded=0;" parent="1" vertex="1">
          <mxGeometry x="50" y="680" width="60" height="30" as="geometry" />
        </mxCell>
        <mxCell id="Eos6X2ovC3lkWwXZqZiY-28" value="" style="rounded=0;whiteSpace=wrap;html=1;" parent="1" vertex="1">
          <mxGeometry x="40" y="710" width="720" height="50" as="geometry" />
        </mxCell>
        <mxCell id="Eos6X2ovC3lkWwXZqZiY-29" value="&lt;font style=&quot;font-size: 18px;&quot;&gt;VonHier - Kommune&lt;/font&gt;" style="text;html=1;align=center;verticalAlign=middle;whiteSpace=wrap;rounded=0;" parent="1" vertex="1">
          <mxGeometry x="50" y="720" width="180" height="30" as="geometry" />
        </mxCell>
        <mxCell id="Eos6X2ovC3lkWwXZqZiY-31" value="Profil" style="ellipse;whiteSpace=wrap;html=1;aspect=fixed;" parent="1" vertex="1">
          <mxGeometry x="710" y="715" width="40" height="40" as="geometry" />
        </mxCell>
        <mxCell id="Eos6X2ovC3lkWwXZqZiY-32" value="BILD" style="rounded=0;whiteSpace=wrap;html=1;" parent="1" vertex="1">
          <mxGeometry x="190" y="760" width="250" height="190" as="geometry" />
        </mxCell>
        <mxCell id="Eos6X2ovC3lkWwXZqZiY-33" value="TITEL" style="text;html=1;align=center;verticalAlign=middle;whiteSpace=wrap;rounded=0;" parent="1" vertex="1">
          <mxGeometry x="460" y="770" width="60" height="30" as="geometry" />
        </mxCell>
        <mxCell id="Eos6X2ovC3lkWwXZqZiY-34" value="BESCHREIBUNG" style="text;html=1;align=center;verticalAlign=middle;whiteSpace=wrap;rounded=0;" parent="1" vertex="1">
          <mxGeometry x="490" y="810" width="60" height="30" as="geometry" />
        </mxCell>
        <mxCell id="Eos6X2ovC3lkWwXZqZiY-35" value="Username&lt;br&gt;Kontaktdaten&lt;br&gt;..." style="text;html=1;align=left;verticalAlign=middle;whiteSpace=wrap;rounded=0;" parent="1" vertex="1">
          <mxGeometry x="190" y="960" width="60" height="60" as="geometry" />
        </mxCell>
        <mxCell id="Eos6X2ovC3lkWwXZqZiY-38" value="Anzeige aufgeben" style="rounded=0;whiteSpace=wrap;html=1;" parent="1" vertex="1">
          <mxGeometry x="620" y="277.5" width="80" height="35" as="geometry" />
        </mxCell>
        <mxCell id="yZWPwxqUw5AAG1J3SNDR-1" value="Offer" style="swimlane;fontStyle=0;childLayout=stackLayout;horizontal=1;startSize=26;fillColor=none;horizontalStack=0;resizeParent=1;resizeParentMax=0;resizeLast=0;collapsible=1;marginBottom=0;whiteSpace=wrap;html=1;" parent="1" vertex="1">
          <mxGeometry x="135" y="1170" width="120" height="160" as="geometry" />
        </mxCell>
        <mxCell id="yZWPwxqUw5AAG1J3SNDR-2" value="- id: uuid&lt;div&gt;- title: string&lt;/div&gt;&lt;div&gt;- description: string&lt;/div&gt;&lt;div&gt;- userId: uuid&lt;/div&gt;&lt;div&gt;- type: enum&lt;/div&gt;&lt;div&gt;- images: [uuid]&lt;/div&gt;&lt;div&gt;- active: boolean&lt;/div&gt;&lt;div&gt;- views: int&lt;/div&gt;" style="text;strokeColor=none;fillColor=none;align=left;verticalAlign=top;spacingLeft=4;spacingRight=4;overflow=hidden;rotatable=0;points=[[0,0.5],[1,0.5]];portConstraint=eastwest;whiteSpace=wrap;html=1;" parent="yZWPwxqUw5AAG1J3SNDR-1" vertex="1">
          <mxGeometry y="26" width="120" height="134" as="geometry" />
        </mxCell>
        <mxCell id="yZWPwxqUw5AAG1J3SNDR-5" value="User" style="swimlane;fontStyle=0;childLayout=stackLayout;horizontal=1;startSize=26;fillColor=none;horizontalStack=0;resizeParent=1;resizeParentMax=0;resizeLast=0;collapsible=1;marginBottom=0;whiteSpace=wrap;html=1;" parent="1" vertex="1">
          <mxGeometry x="325" y="1170" width="130" height="190" as="geometry" />
        </mxCell>
        <mxCell id="yZWPwxqUw5AAG1J3SNDR-6" value="- id: uuid&lt;div&gt;- name: string&lt;/div&gt;&lt;div&gt;- email: string&lt;/div&gt;&lt;div&gt;- telnr: string&lt;/div&gt;&lt;div&gt;- city: string&lt;/div&gt;&lt;div&gt;- postalcode: int&lt;/div&gt;&lt;div&gt;- street: string&lt;/div&gt;&lt;div&gt;- housenr: string&lt;/div&gt;&lt;div&gt;- image: uuid&lt;/div&gt;&lt;div&gt;- pwHash: string&lt;/div&gt;" style="text;strokeColor=none;fillColor=none;align=left;verticalAlign=top;spacingLeft=4;spacingRight=4;overflow=hidden;rotatable=0;points=[[0,0.5],[1,0.5]];portConstraint=eastwest;whiteSpace=wrap;html=1;" parent="yZWPwxqUw5AAG1J3SNDR-5" vertex="1">
          <mxGeometry y="26" width="130" height="164" as="geometry" />
        </mxCell>
        <mxCell id="7I29j2OHW5D6vdzMMqA9-3" value="Objekte" style="text;html=1;align=center;verticalAlign=middle;resizable=0;points=[];autosize=1;strokeColor=none;fillColor=none;" parent="1" vertex="1">
          <mxGeometry x="255" y="1140" width="60" height="30" as="geometry" />
        </mxCell>
        <mxCell id="ocn6H5WqiOFEjXxOB4yq-2" style="edgeStyle=orthogonalEdgeStyle;rounded=0;orthogonalLoop=1;jettySize=auto;html=1;exitX=0;exitY=0.7;exitDx=0;exitDy=0;entryX=1;entryY=0.75;entryDx=0;entryDy=0;" edge="1" parent="1" source="7I29j2OHW5D6vdzMMqA9-7" target="7I29j2OHW5D6vdzMMqA9-8">
          <mxGeometry relative="1" as="geometry" />
        </mxCell>
        <mxCell id="7I29j2OHW5D6vdzMMqA9-7" value="DB" style="shape=datastore;whiteSpace=wrap;html=1;" parent="1" vertex="1">
          <mxGeometry x="555" y="1395" width="60" height="60" as="geometry" />
        </mxCell>
        <mxCell id="7I29j2OHW5D6vdzMMqA9-13" style="edgeStyle=orthogonalEdgeStyle;rounded=0;orthogonalLoop=1;jettySize=auto;html=1;exitX=0;exitY=0.75;exitDx=0;exitDy=0;entryX=1;entryY=0.75;entryDx=0;entryDy=0;" parent="1" source="7I29j2OHW5D6vdzMMqA9-8" target="7I29j2OHW5D6vdzMMqA9-9" edge="1">
          <mxGeometry relative="1" as="geometry" />
        </mxCell>
        <mxCell id="7I29j2OHW5D6vdzMMqA9-8" value="Backend" style="rounded=0;whiteSpace=wrap;html=1;" parent="1" vertex="1">
          <mxGeometry x="330" y="1395" width="120" height="60" as="geometry" />
        </mxCell>
        <mxCell id="7I29j2OHW5D6vdzMMqA9-12" style="edgeStyle=orthogonalEdgeStyle;rounded=0;orthogonalLoop=1;jettySize=auto;html=1;exitX=1;exitY=0.25;exitDx=0;exitDy=0;entryX=0;entryY=0.25;entryDx=0;entryDy=0;" parent="1" source="7I29j2OHW5D6vdzMMqA9-9" target="7I29j2OHW5D6vdzMMqA9-8" edge="1">
          <mxGeometry relative="1" as="geometry" />
        </mxCell>
        <mxCell id="7I29j2OHW5D6vdzMMqA9-9" value="Frontend" style="rounded=0;whiteSpace=wrap;html=1;" parent="1" vertex="1">
          <mxGeometry x="120" y="1395" width="120" height="60" as="geometry" />
        </mxCell>
        <mxCell id="ocn6H5WqiOFEjXxOB4yq-1" style="edgeStyle=orthogonalEdgeStyle;rounded=0;orthogonalLoop=1;jettySize=auto;html=1;exitX=1;exitY=0.25;exitDx=0;exitDy=0;entryX=-0.053;entryY=0.266;entryDx=0;entryDy=0;entryPerimeter=0;" edge="1" parent="1" source="7I29j2OHW5D6vdzMMqA9-8" target="7I29j2OHW5D6vdzMMqA9-7">
          <mxGeometry relative="1" as="geometry" />
        </mxCell>
      </root>
    </mxGraphModel>
  </diagram>
</mxfile>
